<mxfile host="app.diagrams.net" modified="2023-05-08T12:11:29.488Z" agent="Mozilla/5.0 (Windows NT 10.0; Win64; x64) AppleWebKit/537.36 (KHTML, like Gecko) Chrome/112.0.0.0 Safari/537.36" version="21.2.3" etag="FuyIJ2Ea1PYwiMmgc1MR" type="github">
  <diagram name="Page-1" id="IdKhJMqrSXx1a7O-_2FO">
    <mxGraphModel>
      <root>
        <mxCell id="0" />
        <mxCell id="1" parent="0" />
      </root>
    </mxGraphModel>
  </diagram>
</mxfile>
